<svg id="Layer_1" data-name="Layer 1" xmlns="http://www.w3.org/2000/svg" viewBox="0 0 850.3 199.6"><defs><style>.cls-1{fill:#004d9c;}</style></defs><path class="cls-1" d="M841.7,77v49.7a22.47,22.47,0,0,1-1.8,8.9,24,24,0,0,1-4.9,7.3,23.07,23.07,0,0,1-25.1,4.8,22.16,22.16,0,0,1-7.2-4.8,23,23,0,0,1-6.7-16.2V77h-8.4v49.7a29.81,29.81,0,0,0,2.5,12.1,31.63,31.63,0,0,0,6.7,9.8,30.15,30.15,0,0,0,9.9,6.6,31.19,31.19,0,0,0,35.1-7.5v17.2a22.35,22.35,0,0,1-1.8,8.8,25.5,25.5,0,0,1-4.9,7.2,23.58,23.58,0,0,1-7.2,4.9,22.83,22.83,0,0,1-8.9,1.8v8.2a32,32,0,0,0,12.2-2.4,33,33,0,0,0,9.9-6.6,31.63,31.63,0,0,0,6.7-9.8h0a29.48,29.48,0,0,0,2.5-12.1V77Z" transform="translate(0 0)"/><path class="cls-1" d="M449.3,87.6a41.82,41.82,0,0,0-13.2-8.8,39.06,39.06,0,0,0-16.2-3.2,41.93,41.93,0,0,0-29.5,12,41.63,41.63,0,0,0-12.2,29.3v78.8h8.4V141.6a38.69,38.69,0,0,0,14.3,12,40.49,40.49,0,0,0,19,4.4,42.54,42.54,0,0,0,16.2-3.2,43.58,43.58,0,0,0,13.2-8.8h0a41.68,41.68,0,0,0,8.9-13.1,39.86,39.86,0,0,0,3.3-16,40.69,40.69,0,0,0-3.3-16.1A42.11,42.11,0,0,0,449.3,87.6Zm1.3,42a32.79,32.79,0,0,1-7.2,10.5,33.33,33.33,0,0,1-23.5,9.7,32.88,32.88,0,0,1-23.6-9.7,34.17,34.17,0,0,1-7.1-10.5,29.65,29.65,0,0,1-2.6-12.8,32.9,32.9,0,0,1,2.6-12.8,34.17,34.17,0,0,1,7.1-10.5,32.21,32.21,0,0,1,10.5-7,32.6,32.6,0,0,1,13.1-2.6,33.77,33.77,0,0,1,12.9,2.6,35.54,35.54,0,0,1,10.6,7,32.79,32.79,0,0,1,7.2,10.5h0a31.52,31.52,0,0,1,2.6,12.8A32.9,32.9,0,0,1,450.6,129.6Z" transform="translate(0 0)"/><path class="cls-1" d="M180.5,113.6a45.38,45.38,0,0,0,13.6,9,42.27,42.27,0,0,0,33.1,0,44.78,44.78,0,0,0,13.6-9,39.82,39.82,0,0,0,9.1-13.4,42.4,42.4,0,0,0,0-32.8,41.25,41.25,0,0,0-9.1-13.5,43.09,43.09,0,0,0-60.3,0,41.25,41.25,0,0,0-9.1,13.5,42.4,42.4,0,0,0,0,32.8A40.83,40.83,0,0,0,180.5,113.6Z" transform="translate(0 0)"/><path class="cls-1" d="M343.2,128.2a34,34,0,0,0-.6-4.6c0-.3-.1-.5-.1-.8-.3-1.4-.6-2.9-.9-4.3,0-.2-.1-.3-.1-.5-.4-1.5-.8-3-1.3-4.4l-.3-.9c-.5-1.4-1.1-2.9-1.7-4.3-.1-.2-.2-.3-.2-.5-.6-1.3-1.2-2.6-1.9-3.9l-.3-.6c-.7-1.3-1.5-2.6-2.3-3.9-.2-.2-.3-.5-.5-.7a32.82,32.82,0,0,0-2.7-3.8q-1.35-1.8-3-3.6c-.2-.2-.3-.4-.5-.6-1-1.1-2.1-2.2-3.2-3.3l-.5-.5c-1.1-1-2.2-2-3.4-3l-.2-.2c-1.2-1-2.4-1.9-3.7-2.8a4.23,4.23,0,0,0-.7-.5c-1.3-.9-2.6-1.7-3.9-2.5-.1-.1-.3-.1-.4-.2a30.47,30.47,0,0,0-4-2.1c-.2-.1-.3-.2-.5-.2-1.4-.7-2.8-1.3-4.3-1.9-.2-.1-.5-.2-.7-.3-1.5-.6-3-1.1-4.6-1.6a87.15,87.15,0,0,0-8.4-24.9c0-.1-.1-.1-.1-.2-.5-1-1.1-2-1.7-3l-.2-.3c-.6-1-1.2-1.9-1.8-2.9a.52.52,0,0,1-.2-.4,27.5,27.5,0,0,0-1.9-2.8l-.2-.2a83.3,83.3,0,0,0-11.7-13.4c-.2-.1-.3-.3-.5-.4l-2.1-1.8c-.3-.3-.6-.5-.9-.8-.7-.5-1.3-1.1-2-1.6-.4-.3-.7-.6-1.1-.9a14.29,14.29,0,0,0-2-1.4l-1.2-.9c-.6-.4-1.3-.9-1.9-1.3s-.9-.6-1.4-.9-1.3-.8-1.9-1.2l-1.5-.9c-.6-.4-1.3-.7-1.9-1.1s-1.2-.6-1.7-.9l-1.8-.9c-1.2-.5-2.3-1.1-3.5-1.6-.5-.2-1-.4-1.6-.6s-1.5-.6-2.2-.9-1.1-.4-1.7-.6-1.4-.5-2.2-.7c-.6-.2-1.1-.3-1.7-.5l-2.2-.6a13.64,13.64,0,0,0-1.7-.4,18.92,18.92,0,0,0-2.3-.5,11.63,11.63,0,0,1-1.8-.4,20,20,0,0,0-2.4-.4l-1.7-.3L221.1.8c-.5-.1-1.1-.1-1.6-.2a26.35,26.35,0,0,0-2.8-.2c-.5,0-.9-.1-1.4-.1a19.81,19.81,0,0,0-4.2-.3c-2.1,0-4.2.1-6.3.2-.5,0-.9.1-1.4.1-2,.2-4,.4-6,.7-.3,0-.6.1-.8.1-1.8.3-3.6.7-5.4,1.1-.4.1-.8.2-1.1.3-1.9.5-3.8,1-5.7,1.6a4.87,4.87,0,0,0-1.1.4c-1.8.6-3.5,1.2-5.2,1.9-.2.1-.4.1-.6.2-1.8.8-3.6,1.6-5.4,2.5-.3.2-.7.3-1,.5a82.73,82.73,0,0,0-10.3,6.2,3.51,3.51,0,0,1-.8.5c-1.6,1.2-3.2,2.4-4.8,3.7-.1.1-.2.1-.3.2-1.5,1.3-3,2.6-4.4,3.9l-.4.4a57.74,57.74,0,0,0-4.2,4.4c-.1.1-.2.3-.4.4a80.45,80.45,0,0,0-7.5,9.9c-.1.2-.2.3-.3.5a78.19,78.19,0,0,0-6,11c-.1.2-.1.3-.2.5a60.7,60.7,0,0,0-2.4,5.9,74.5,74.5,0,0,0-9.1-3h0c-1-.3-2.1-.5-3.1-.7a.37.37,0,0,1-.3-.1,29.31,29.31,0,0,0-2.9-.5c-.2,0-.4-.1-.6-.1l-2.6-.3c-.5,0-.9-.1-1.4-.1s-1.3-.1-1.9-.1c-1,0-1.9-.1-2.9-.1h-.5a66.25,66.25,0,0,0-49,21.5L52.7,76a59.8,59.8,0,0,0-5.5,7.7,64.73,64.73,0,0,0-9.6,34h0c-1.1.1-2.2.3-3.3.5-.2,0-.5.1-.7.1-1,.2-1.9.4-2.9.7a3.55,3.55,0,0,1-1,.2c-.9.3-1.8.6-2.6.9-.4.1-.7.3-1.1.4-.8.3-1.6.7-2.4,1l-1.2.6c-.7.4-1.4.8-2.2,1.2-.4.2-.8.5-1.2.7-.7.4-1.3.9-1.9,1.3l-1.2.9c-.6.5-1.2.9-1.7,1.4s-.8.7-1.2,1.1l-1.5,1.5a15.38,15.38,0,0,0-1.2,1.3A10.1,10.1,0,0,0,9,133.1a17.1,17.1,0,0,1-1.1,1.4,15.26,15.26,0,0,0-1.1,1.6c-.3.5-.7,1.1-1,1.6s-.7,1.1-1,1.7l-.9,1.8c-.3.6-.5,1.1-.8,1.7a15.87,15.87,0,0,0-.7,2c-.2.6-.4,1.1-.6,1.7s-.4,1.5-.6,2.2c-.1.5-.3,1.1-.4,1.6A23.36,23.36,0,0,0,.4,153a6.75,6.75,0,0,0-.2,1.4c-.1,1.3-.2,2.7-.2,4.1s.1,2.7.2,4a5.07,5.07,0,0,0,.2,1.3,23.36,23.36,0,0,0,.4,2.6c.1.5.3,1.1.4,1.6a18,18,0,0,0,.6,2.2c.2.6.4,1.1.6,1.7s.5,1.3.7,1.9a8.86,8.86,0,0,0,.8,1.7c.3.6.5,1.1.8,1.7a16.18,16.18,0,0,0,1,1.8l.9,1.5,1.2,1.8.9,1.2,1.5,1.8c.3.3.6.7.9,1l1.8,1.8a5.72,5.72,0,0,0,.8.7c.7.6,1.4,1.3,2.1,1.8.1.1.3.2.4.3a41,41,0,0,0,20.1,8.2v.4H145.7v.1h1.6V83.8a62.72,62.72,0,0,1,18.6-44.6,65.36,65.36,0,0,1,20.2-13.4,64.1,64.1,0,0,1,49.4,0,65.36,65.36,0,0,1,20.2,13.4,62.31,62.31,0,0,1,18.6,44.6,57.83,57.83,0,0,1-5,24.3,64.16,64.16,0,0,1-33.8,33.4,61.54,61.54,0,0,1-24.7,4.9,62.29,62.29,0,0,1-42.5-16.1v69.3H282.9v-.2l3.2-.3h0c1-.1,2.1-.3,3.1-.5h0a66.67,66.67,0,0,0,36.6-19.7l.3-.3c.5-.6,1-1.1,1.6-1.7.2-.2.3-.4.5-.6a10.92,10.92,0,0,0,1.3-1.7c.2-.3.4-.5.6-.8.4-.5.8-1.1,1.2-1.6l.6-.9c.4-.5.7-1,1.1-1.6a6.07,6.07,0,0,1,.7-1l.9-1.5a4.13,4.13,0,0,1,.7-1.1,10.93,10.93,0,0,0,.8-1.5l.6-1.2a10.09,10.09,0,0,0,.7-1.5c.2-.4.4-.9.6-1.3l.6-1.5c.2-.5.4-.9.6-1.4l.6-1.5c.2-.5.3-1,.5-1.5s.3-1,.5-1.5.3-1,.5-1.6.3-1,.4-1.5.3-1.1.4-1.7.2-.9.3-1.4l.3-1.8a6.75,6.75,0,0,0,.2-1.4,12.25,12.25,0,0,0,.2-1.9c.1-.4.1-.9.2-1.3.1-.7.1-1.4.2-2.2h0c0-.4.1-.7.1-1.1.1-1.1.1-2.2.1-3.3,0-1.6-.1-3.3-.2-4.9A1.1,1.1,0,0,1,343.2,128.2Z" transform="translate(0 0)"/><path class="cls-1" d="M624.5,126.6a22.47,22.47,0,0,1-1.8,8.9,24,24,0,0,1-4.9,7.3,23.07,23.07,0,0,1-25.1,4.8,22.16,22.16,0,0,1-7.2-4.8,23,23,0,0,1-6.7-16.2V77h-8.4v49.7a29.81,29.81,0,0,0,2.5,12.1,31.63,31.63,0,0,0,6.7,9.8,30.15,30.15,0,0,0,9.9,6.6,31.19,31.19,0,0,0,35.1-7.5v17.2a22.35,22.35,0,0,1-1.8,8.8,25.5,25.5,0,0,1-4.9,7.2,23.58,23.58,0,0,1-7.2,4.9,22.83,22.83,0,0,1-8.9,1.8v8.2a32,32,0,0,0,12.2-2.4,33,33,0,0,0,9.9-6.6h0a31.63,31.63,0,0,0,6.7-9.8,29.48,29.48,0,0,0,2.5-12.1V77h-8.3v49.6Z" transform="translate(0 0)"/><polygon class="cls-1" points="717.2 37.7 717.2 156 725.5 156 725.5 116.5 725.5 37.7 717.2 37.7"/><path class="cls-1" d="M696,117.2a20.57,20.57,0,0,0-14.4-5.7H669.7a12.11,12.11,0,0,1-8.5-3.3,12.25,12.25,0,0,1-3.9-8.2,14.08,14.08,0,0,1,0-4.1,12.25,12.25,0,0,1,3.9-8.2,11.84,11.84,0,0,1,8.5-3.3h29.9V76.2H669.7a21.33,21.33,0,0,0-7.9,1.5,20.61,20.61,0,0,0-11,10.2,20.14,20.14,0,0,0-1.8,7.6,18.48,18.48,0,0,0,0,4.7,20.14,20.14,0,0,0,1.8,7.6,20.61,20.61,0,0,0,11,10.2,21.33,21.33,0,0,0,7.9,1.5h11.8a12.64,12.64,0,0,1,12.6,12.3v3.3a3.4,3.4,0,0,1-.1,1,3.4,3.4,0,0,0-.1,1,12.49,12.49,0,0,1-4.3,7.5,12.22,12.22,0,0,1-8.1,2.9H650.8v8.2h30.7a19.72,19.72,0,0,0,8-1.6,20.91,20.91,0,0,0,6.6-4.3h0a20.6,20.6,0,0,0,4.5-6.4,19.69,19.69,0,0,0,1.7-7.9V131a20.14,20.14,0,0,0-1.8-7.6A25.25,25.25,0,0,0,696,117.2Z" transform="translate(0 0)"/><path class="cls-1" d="M544.7,87.1a41.93,41.93,0,0,0-29.5-12A42.54,42.54,0,0,0,499,78.3a43.58,43.58,0,0,0-13.2,8.8,41.63,41.63,0,0,0-12.2,29.3,39.86,39.86,0,0,0,3.3,16,41.68,41.68,0,0,0,8.9,13.1,40.19,40.19,0,0,0,13.2,8.8,39.06,39.06,0,0,0,16.2,3.2,40.93,40.93,0,0,0,33.3-16.4h0v14.7h8.4V116.4a40.69,40.69,0,0,0-3.3-16.1A42.11,42.11,0,0,0,544.7,87.1Zm1.1,42a34.17,34.17,0,0,1-7.1,10.5,33.47,33.47,0,0,1-36.5,7.1,35.86,35.86,0,0,1-10.6-7.1,34.47,34.47,0,0,1-7.2-10.5,29.65,29.65,0,0,1-2.6-12.8A32.4,32.4,0,0,1,491.6,93a35.54,35.54,0,0,1,10.6-7,33.72,33.72,0,0,1,36.5,7,34.17,34.17,0,0,1,7.1,10.5h0a31.52,31.52,0,0,1,2.6,12.8A29.36,29.36,0,0,1,545.8,129.1Z" transform="translate(0 0)"/><polygon class="cls-1" points="765.3 77.1 725.5 116.5 765.3 156 777.1 156 737.3 116.5 777.1 77.1 765.3 77.1"/></svg>